<?xml version='1.0'?>
<!--
Bitly Generated QR Code
v6
41x41
-->
<svg width='784' height='784'
xmlns='http://www.w3.org/2000/svg'
xmlns:xlink='http://www.w3.org/1999/xlink'>
	<g id='background' style='fill:#ffffff' >
<rect x="0" y="0" width="784" height="784" />
</g>
<g id='pips' style='fill:#000000' >
<path d="M64,224L80,224L80,240L96,240L112,240L112,224L128,224L144,224L160,224L176,224L176,240L160,240L160,256L176,256L176,240L192,240L192,256L192,272L192,288L176,288L176,272L160,272L160,288L176,288L176,304L160,304L144,304L128,304L112,304L112,320L128,320L144,320L144,336L160,336L160,352L144,352L144,368L160,368L160,384L144,384L144,400L160,400L160,416L144,416L144,432L128,432L128,416L128,400L128,384L128,368L128,352L128,336L112,336L96,336L96,320L96,304L80,304L80,288L64,288L64,272L80,272L80,256L64,256L64,240L64,224M64,336L80,336L80,352L96,352L96,368L80,368L64,368L64,352L64,336M64,384L80,384L96,384L96,368L112,368L112,384L112,400L112,416L96,416L96,400L80,400L80,416L64,416L64,400L64,384M64,432L80,432L96,432L112,432L112,448L96,448L80,448L64,448L64,432M64,464L80,464L96,464L112,464L112,448L128,448L144,448L144,464L128,464L128,480L112,480L96,480L80,480L80,496L64,496L64,480L64,464M64,544L80,544L80,560L64,560L64,544M96,272L96,288L112,288L128,288L128,272L112,272L96,272M80,496L96,496L96,512L112,512L112,496L128,496L128,512L144,512L160,512L176,512L192,512L192,528L176,528L160,528L160,544L144,544L144,528L128,528L112,528L112,544L112,560L112,576L96,576L96,560L96,544L80,544L80,528L80,512L80,496M80,576L96,576L96,592L80,592L80,576M96,192L112,192L128,192L128,208L112,208L96,208L96,192M128,240L128,256L144,256L144,240L128,240M112,576L128,576L128,592L112,592L112,576M144,464L160,464L160,480L176,480L176,496L160,496L144,496L144,480L144,464M144,560L160,560L160,576L144,576L144,560M160,192L176,192L192,192L192,176L192,160L208,160L208,176L224,176L224,192L224,208L224,224L208,224L208,240L192,240L192,224L192,208L176,208L160,208L160,192M160,320L176,320L176,336L160,336L160,320M160,352L176,352L176,368L160,368L160,352M160,384L176,384L176,400L160,400L160,384M160,416L176,416L176,400L192,400L192,416L208,416L224,416L224,432L240,432L240,416L224,416L224,400L208,400L192,400L192,384L208,384L224,384L224,368L208,368L208,352L208,336L224,336L224,352L240,352L256,352L256,368L240,368L240,384L240,400L256,400L256,416L272,416L272,432L256,432L256,448L240,448L224,448L208,448L192,448L192,432L176,432L160,432L160,416M160,448L176,448L192,448L192,464L176,464L160,464L160,448M160,544L176,544L192,544L192,560L208,560L208,576L224,576L224,592L208,592L208,608L208,624L192,624L192,608L192,592L176,592L160,592L160,576L176,576L176,560L160,560L160,544M176,304L192,304L192,320L176,320L176,304M192,128L208,128L208,144L192,144L192,128M192,288L208,288L224,288L224,272L224,256L240,256L256,256L256,240L272,240L272,256L272,272L272,288L288,288L288,272L304,272L320,272L320,256L320,240L304,240L304,256L288,256L288,240L288,224L288,208L304,208L304,224L320,224L320,208L336,208L336,224L336,240L352,240L352,256L336,256L336,272L336,288L320,288L304,288L304,304L320,304L336,304L336,320L352,320L352,304L368,304L368,320L384,320L384,304L400,304L400,320L416,320L416,336L400,336L400,352L400,368L400,384L416,384L416,368L416,352L416,336L432,336L448,336L448,320L448,304L464,304L480,304L480,288L496,288L512,288L512,272L528,272L528,256L544,256L544,272L544,288L528,288L528,304L528,320L528,336L512,336L512,352L528,352L528,368L544,368L544,352L544,336L544,320L560,320L560,336L560,352L560,368L560,384L544,384L528,384L512,384L512,400L528,400L544,400L544,416L544,432L528,432L528,416L512,416L496,416L496,432L496,448L480,448L480,432L464,432L464,416L464,400L480,400L496,400L496,384L480,384L480,368L496,368L496,352L496,336L496,320L512,320L512,304L496,304L496,320L480,320L480,336L480,352L480,368L464,368L464,352L448,352L448,368L464,368L464,384L448,384L432,384L432,400L416,400L400,400L384,400L384,384L384,368L368,368L368,384L368,400L352,400L352,384L352,368L336,368L336,352L320,352L304,352L304,336L288,336L288,320L272,320L256,320L256,304L256,288L240,288L240,304L240,320L240,336L224,336L224,320L224,304L208,304L192,304L192,288M192,320L208,320L208,336L192,336L192,320M192,464L208,464L224,464L240,464L256,464L256,480L256,496L240,496L240,480L224,480L208,480L192,480L192,464M192,656L208,656L208,672L224,672L224,656L240,656L240,640L256,640L256,624L256,608L272,608L272,592L256,592L256,576L272,576L288,576L288,592L288,608L288,624L304,624L304,640L288,640L272,640L272,656L256,656L256,672L240,672L240,688L240,704L224,704L224,720L208,720L208,704L208,688L192,688L192,672L192,656M208,80L224,80L240,80L240,96L256,96L256,112L240,112L240,128L240,144L256,144L256,160L240,160L240,176L224,176L224,160L224,144L224,128L208,128L208,112L224,112L224,96L208,96L208,80M208,496L224,496L224,512L224,528L224,544L224,560L208,560L208,544L208,528L208,512L208,496M208,640L224,640L224,656L208,656L208,640M224,224L240,224L240,240L224,240L224,224M224,592L240,592L240,608L224,608L224,592M224,624L240,624L240,640L224,640L224,624M240,64L256,64L272,64L272,80L256,80L240,80L240,64M240,176L256,176L256,160L272,160L272,176L288,176L288,192L288,208L272,208L272,224L256,224L256,208L240,208L240,192L240,176M240,512L256,512L272,512L272,528L272,544L256,544L240,544L240,528L240,512M240,704L256,704L256,688L256,672L272,672L288,672L288,688L272,688L272,704L288,704L304,704L304,688L304,672L304,656L304,640L320,640L320,656L320,672L336,672L336,688L320,688L320,704L336,704L336,688L352,688L352,704L352,720L336,720L320,720L304,720L288,720L272,720L256,720L240,720L240,704M256,112L272,112L272,96L288,96L288,112L304,112L304,128L288,128L272,128L256,128L256,112M256,336L272,336L272,352L256,352L256,336M256,368L272,368L272,384L256,384L256,368M256,448L272,448L272,464L256,464L256,448M272,144L288,144L304,144L304,160L304,176L288,176L288,160L272,160L272,144M272,352L288,352L304,352L304,368L320,368L336,368L336,384L336,400L352,400L352,416L368,416L368,400L384,400L384,416L400,416L416,416L432,416L448,416L448,432L432,432L432,448L416,448L416,464L400,464L400,448L400,432L384,432L384,448L384,464L384,480L384,496L368,496L368,480L352,480L352,464L352,448L368,448L368,432L352,432L352,448L336,448L336,432L336,416L320,416L320,400L304,400L304,384L288,384L288,368L272,368L272,352M272,480L288,480L304,480L304,496L320,496L320,512L336,512L336,528L336,544L320,544L304,544L304,528L304,512L288,512L272,512L272,496L272,480M288,416L304,416L320,416L320,432L320,448L304,448L304,432L288,432L288,416M288,544L304,544L304,560L288,560L288,544M304,64L320,64L320,80L304,80L304,64M304,192L320,192L320,208L304,208L304,192M304,592L320,592L336,592L336,608L320,608L304,608L304,592M320,80L336,80L336,64L352,64L368,64L384,64L384,80L368,80L352,80L352,96L352,112L336,112L336,96L320,96L320,80M320,112L336,112L336,128L336,144L320,144L320,128L320,112M320,160L336,160L336,176L336,192L320,192L320,176L320,160M320,448L336,448L336,464L320,464L320,448M320,480L336,480L336,496L320,496L320,480M320,624L336,624L336,640L320,640L320,624M336,192L352,192L368,192L368,176L384,176L384,160L368,160L368,176L352,176L352,160L352,144L368,144L368,128L352,128L352,112L368,112L368,96L384,96L384,112L384,128L400,128L416,128L416,144L432,144L432,128L432,112L448,112L448,128L464,128L480,128L480,144L464,144L464,160L464,176L448,176L448,160L432,160L432,176L432,192L416,192L400,192L384,192L384,208L368,208L368,224L352,224L352,208L336,208L336,192M336,496L352,496L352,512L336,512L336,496M336,544L352,544L352,560L336,560L336,544M352,272L368,272L368,288L352,288L352,272M352,512L368,512L384,512L384,496L400,496L400,512L400,528L384,528L368,528L352,528L352,512M352,560L368,560L368,544L384,544L384,560L384,576L368,576L352,576L352,560M352,608L368,608L384,608L384,624L368,624L368,640L352,640L352,624L352,608M352,672L368,672L368,688L352,688L352,672M368,240L384,240L384,256L368,256L368,240M368,288L384,288L384,304L368,304L368,288M368,640L384,640L384,624L400,624L416,624L416,608L416,592L416,576L400,576L400,560L416,560L432,560L432,576L432,592L432,608L432,624L432,640L432,656L432,672L432,688L448,688L448,704L448,720L432,720L416,720L416,704L416,688L400,688L384,688L384,672L384,656L368,656L368,640M368,688L384,688L384,704L400,704L400,720L384,720L368,720L368,704L368,688M384,80L400,80L400,96L384,96L384,80M400,160L400,176L416,176L416,160L400,160M384,208L400,208L400,224L384,224L384,208M384,576L400,576L400,592L384,592L384,576M400,656L400,672L416,672L416,656L400,656M400,64L416,64L432,64L448,64L464,64L464,80L448,80L432,80L416,80L400,80L400,64M400,224L416,224L416,240L400,240L400,224M400,256L416,256L416,240L432,240L448,240L448,256L432,256L432,272L416,272L416,288L416,304L400,304L400,288L400,272L400,256M400,528L416,528L416,544L400,544L400,528M416,96L432,96L432,112L416,112L416,96M416,304L432,304L432,320L416,320L416,304M416,480L432,480L432,496L416,496L416,480M416,512L432,512L448,512L448,528L432,528L416,528L416,512M432,208L448,208L464,208L480,208L480,192L464,192L464,176L480,176L480,160L496,160L496,176L512,176L512,160L528,160L528,176L544,176L544,192L560,192L560,208L576,208L592,208L592,192L608,192L624,192L624,208L640,208L640,192L656,192L656,208L656,224L640,224L624,224L624,240L608,240L592,240L592,224L576,224L560,224L560,240L544,240L544,224L528,224L512,224L512,208L528,208L528,192L512,192L512,208L496,208L496,224L480,224L464,224L464,240L448,240L448,224L432,224L432,208M432,272L448,272L448,256L464,256L464,272L464,288L448,288L448,304L432,304L432,288L432,272M432,544L448,544L448,528L464,528L464,512L480,512L496,512L512,512L512,496L512,480L496,480L480,480L480,496L464,496L464,480L448,480L448,464L448,448L464,448L480,448L480,464L496,464L496,448L512,448L512,464L528,464L528,448L544,448L544,464L560,464L576,464L592,464L592,480L592,496L592,512L592,528L608,528L624,528L624,512L640,512L656,512L656,496L656,480L656,464L672,464L688,464L704,464L704,448L720,448L720,464L720,480L720,496L704,496L688,496L688,480L672,480L672,496L672,512L672,528L656,528L640,528L640,544L624,544L624,560L624,576L640,576L656,576L656,592L672,592L672,608L656,608L656,624L656,640L656,656L672,656L672,672L656,672L640,672L640,656L624,656L608,656L592,656L576,656L576,640L576,624L560,624L544,624L544,608L560,608L560,592L576,592L576,576L592,576L608,576L608,560L592,560L592,544L576,544L576,560L576,576L560,576L560,560L544,560L544,576L560,576L560,592L544,592L544,608L528,608L528,592L528,576L528,560L512,560L496,560L496,544L512,544L512,528L496,528L480,528L480,544L480,560L480,576L464,576L464,560L448,560L432,560L432,544M448,496L464,496L464,512L448,512L448,496M448,608L464,608L464,592L480,592L496,592L496,608L480,608L480,624L480,640L496,640L496,656L512,656L512,672L496,672L496,688L480,688L480,672L464,672L448,672L448,656L464,656L464,640L448,640L448,624L448,608M464,96L480,96L480,80L480,64L496,64L496,80L496,96L512,96L528,96L544,96L544,112L528,112L528,128L544,128L544,144L544,160L528,160L528,144L512,144L496,144L496,128L496,112L480,112L464,112L464,96M464,240L480,240L496,240L496,256L496,272L480,272L480,256L464,256L464,240M464,688L480,688L480,704L496,704L496,720L480,720L464,720L464,704L464,688M528,496L528,512L528,528L528,544L544,544L544,528L560,528L560,512L544,512L544,496L528,496M512,608L528,608L528,624L544,624L544,640L528,640L528,656L512,656L512,640L512,624L512,608M512,672L528,672L528,688L512,688L512,672M528,64L544,64L560,64L576,64L592,64L592,80L592,96L592,112L576,112L560,112L560,96L576,96L576,80L560,80L560,96L544,96L544,80L528,80L528,64M528,656L544,656L544,672L528,672L528,656M544,160L560,160L560,176L544,176L544,160M544,288L560,288L576,288L576,272L560,272L560,256L576,256L576,240L592,240L592,256L592,272L592,288L592,304L576,304L560,304L544,304L544,288M544,432L560,432L560,448L544,448L544,432M544,672L560,672L560,688L560,704L544,704L544,688L544,672M560,128L576,128L576,144L592,144L592,160L592,176L576,176L576,160L560,160L560,144L560,128M560,176L576,176L576,192L560,192L560,176M560,384L576,384L576,400L592,400L592,416L576,416L560,416L560,400L560,384M560,656L576,656L576,672L560,672L560,656M560,704L576,704L576,688L576,672L592,672L592,688L608,688L608,704L624,704L624,720L608,720L592,720L576,720L560,720L560,704M576,336L592,336L608,336L608,352L608,368L592,368L592,352L576,352L576,336M592,592L592,608L592,624L592,640L608,640L624,640L640,640L640,624L640,608L640,592L624,592L608,592L592,592M592,384L608,384L624,384L624,368L640,368L640,384L640,400L624,400L624,416L624,432L624,448L608,448L608,432L592,432L592,416L608,416L608,400L592,400L592,384M608,256L624,256L624,240L640,240L640,256L640,272L624,272L608,272L608,256M608,288L624,288L640,288L656,288L656,272L656,256L672,256L688,256L688,240L672,240L672,224L672,208L688,208L688,224L704,224L704,240L720,240L720,256L704,256L704,272L688,272L688,288L672,288L672,304L672,320L656,320L656,304L640,304L640,320L624,320L608,320L608,304L608,288M608,464L624,464L624,480L640,480L640,496L624,496L608,496L608,480L608,464M608,608L624,608L624,624L608,624L608,608M624,336L640,336L640,352L624,352L624,336M624,672L640,672L640,688L624,688L624,672M640,320L656,320L656,336L640,336L640,320M640,352L656,352L656,368L640,368L640,352M640,400L656,400L656,416L640,416L640,400M656,368L672,368L688,368L704,368L720,368L720,384L704,384L704,400L720,400L720,416L704,416L704,432L688,432L688,416L688,400L672,400L656,400L656,384L656,368M656,432L672,432L672,448L656,448L656,432M656,544L672,544L672,560L688,560L704,560L720,560L720,576L720,592L720,608L704,608L688,608L688,592L704,592L704,576L688,576L688,592L672,592L672,576L656,576L656,560L656,544M672,336L688,336L688,352L672,352L672,336M672,640L688,640L688,624L704,624L720,624L720,640L720,656L720,672L704,672L704,656L688,656L672,656L672,640M688,288L704,288L704,272L720,272L720,288L720,304L704,304L688,304L688,288M688,320L704,320L704,336L688,336L688,320M688,512L704,512L720,512L720,528L704,528L688,528L688,512M704,208L720,208L720,224L704,224L704,208Z" />
<path d="M4.7253,9.0689C6.179,9.0436 6.4149,7.6154 6.4149,6.769C6.4149,5.5163 5.775,5.0788 5,5C4.0425,5.4242 3.3403,6.146 3.2555,7.2606C3.2416,7.4443 3.237,7.6894 3.2516,7.9757C3.2906,8.7383 3.8493,9.0843 4.7253,9.0689 M 12.2447 10.8068 C 11.2047 10.8068 10.1118 10.1673 10.06 8.9707 C 8.8774 10.2223 7.0538 10.8186 4.7253 10.8186 C 2.3769 10.8186 1.396 9.2175 1.396 7.9703 C 1.4554 3.8126 1.3605 2.255 1.341 1.9353 C 1.3393 1.907 1.3381 1.8884 1.3377 1.8785 L 1.3373 1.8677 C 1.3313 1.7096 1.3224 1.4733 1.172 1.4572 C 1.0786 1.4472 1.0183 1.4757 0.911 1.6094 C 0.75 1.8233 0.425 1.908 0.2273 1.7937 C -0.0116 1.6555 -0.0562 1.3505 0.0647 1.0697 C 0.4002 0.3212 0.9379 -0.01 1.6625 0.0003 C 2.9146 0.0182 3.2738 0.8359 3.2738 1.8575 C 3.2738 1.8575 3.246 3.3292 3.246 4.1579 C 3.689 3.7969 4.3397 3.4098 5.4266 3.4098 C 7.6899 3.4098 9.1267 6.2118 7.6503 8.8925 C 9.5428 8.0197 9.9378 6.5164 10.0112 5.0238 L 10.0043 4.5203 C 10.0043 3.9552 10.3688 3.4767 10.9361 3.4767 C 11.5034 3.4767 11.8802 3.9877 11.86 4.5271 C 11.7919 6.3438 11.7644 7.5395 11.7644 8.1722 C 11.7644 8.5384 11.9642 9.0996 12.5555 9.0996 C 13.7134 9.0996 14.094 8.1922 14.1838 6.0595 C 14.1885 5.2642 14.1927 4.5997 14.1927 4.5997 C 13.6679 4.5997 13.4094 4.324 13.4094 3.9795 C 13.4094 3.635 13.683 3.3163 14.1321 3.3163 C 14.1321 3.3163 14.133 2.1182 14.133 1.622 C 14.133 1.0569 14.5715 0.5883 15.1388 0.5883 C 15.7062 0.5883 16.1567 1.0569 16.1567 1.622 C 16.1567 1.8095 16.1495 2.028 16.1416 2.2695 C 16.1315 2.5784 16.1201 2.9246 16.121 3.2909 L 16.2032 3.2905 H 16.2032 C 16.357 3.29 16.7051 3.2888 17.1681 3.2834 C 17.7198 3.2769 17.9445 3.5851 17.9445 3.9709 C 17.9445 4.3567 17.6475 4.626 17.2602 4.6276 C 16.9012 4.6291 16.1083 4.6247 16.1083 4.6247 C 16.0723 5.7674 16.0382 7.1451 16.0382 8.2475 C 16.0382 8.6451 16.3126 9.0995 16.9767 9.0995 C 18.3163 9.0995 18.8167 7.9092 18.9173 5.6498 C 18.9095 4.0766 18.8907 3.1653 18.8765 2.4785 V 2.4785 C 18.8666 1.9969 18.859 1.6258 18.859 1.2143 C 18.859 0.6493 19.3295 0.1442 19.8967 0.1442 C 20.4641 0.1442 20.8826 0.5977 20.8826 1.1627 C 20.8826 1.598 20.8651 2.1069 20.8413 2.8009 V 2.8009 V 2.801 C 20.801 3.9747 20.7425 5.6778 20.7195 8.4504 C 20.7165 8.8195 20.8967 9.0795 21.3748 9.0795 C 22.6524 9.0795 23.0066 7.6955 23.119 5.7625 C 23.1197 5.6695 23.1205 5.5785 23.1214 5.4891 L 23.1214 5.4887 C 23.1231 5.3054 23.1247 5.1289 23.1247 4.9561 C 23.1247 4.391 23.5011 3.9337 24.0686 3.9337 C 24.6359 3.9337 24.9694 4.4022 24.9694 4.9673 C 24.9694 5.3698 24.9562 5.7464 24.9427 6.1348 C 24.9307 6.4777 24.9184 6.8299 24.9146 7.2176 C 24.9047 8.2151 25.2455 9.0938 26.0756 9.0914 C 26.8726 9.0891 27.7479 8.7536 27.7691 7.045 C 27.7751 6.5701 27.7683 6.2053 27.7615 5.8371 V 5.837 V 5.8369 V 5.8368 C 27.7564 5.5642 27.7513 5.2897 27.7513 4.9673 C 27.7513 4.4022 28.1451 3.9337 28.7125 3.9337 C 29.2795 3.9337 29.6737 4.4022 29.6737 4.9673 C 29.6737 5.3051 29.6614 5.6415 29.6477 6.0145 V 6.0145 V 6.0146 V 6.0146 C 29.6307 6.4783 29.6117 6.9984 29.6117 7.6477 C 29.6117 7.6477 29.5769 10.0141 29.66 10.5378 C 29.9203 10.4512 30.2958 10.1968 30.6935 9.5802 C 30.9337 9.208 31.3928 9.1282 31.6758 9.293 C 32.0653 9.52 32.0514 9.9635 31.9058 10.2875 C 31.5298 11.1239 31.0409 11.6358 29.8047 12.0595 C 29.8086 13.4782 29.7098 15.5713 27.0868 15.9496 C 24.8405 16.2735 23.8244 14.9708 23.8211 13.8623 C 23.8157 12.112 25.5649 11.6022 28.0897 10.9665 L 28.0087 10.099 C 28.0087 10.099 27.4464 10.8364 26.0215 10.8008 C 24.9223 10.7733 24.1663 10.2543 23.7077 9.5213 C 23.1787 10.3901 22.3495 10.8105 21.1004 10.8105 C 20.2775 10.8105 19.4934 10.3758 19.1051 9.7457 C 18.5325 10.4308 17.7339 10.8015 16.6607 10.8015 C 15.7256 10.8015 15.0346 10.4786 14.6209 9.9746 C 14.087 10.5712 13.318 10.8068 12.2447 10.8068 Z M 28.2548 12.363 C 26.9786 12.6385 25.3798 13.0407 25.3983 13.8266 C 25.4158 14.5636 26.1767 14.6977 26.8111 14.5666 C 28.1286 14.2943 28.2816 13.5015 28.2548 12.363 Z M 11.9704 1.6249 C 11.9704 1.0544 11.5073 0.5932 10.9347 0.5932 C 10.3619 0.5932 9.8989 1.0544 9.8989 1.6249 C 9.8989 2.1953 10.3619 2.6566 10.9347 2.6566 C 11.5073 2.6566 11.9704 2.1953 11.9704 1.6249 Z" fill='#000000' transform='translate(648.000000, 684.000000) scale(2.250000, 2.250000)' />
</g>
<g id='corners-outer-1' style='fill:#000000' >
<path d="M64,64L80,64L96,64L112,64L128,64L144,64L160,64L176,64L176,80L176,96L176,112L176,128L176,144L176,160L176,176L160,176L144,176L128,176L112,176L96,176L80,176L64,176L64,160L64,144L64,128L64,112L64,96L64,80L64,64M80,80L80,96L80,112L80,128L80,144L80,160L96,160L112,160L128,160L144,160L160,160L160,144L160,128L160,112L160,96L160,80L144,80L128,80L112,80L96,80L80,80Z" />
</g>
<g id='corners-inner-1' style='fill:#000000' >
<path d="M96,96L112,96L128,96L144,96L144,112L144,128L144,144L128,144L112,144L96,144L96,128L96,112L96,96Z" />
</g>
<g id='corners-outer-2' style='fill:#000000' >
<path d="M608,64L624,64L640,64L656,64L672,64L688,64L704,64L720,64L720,80L720,96L720,112L720,128L720,144L720,160L720,176L704,176L688,176L672,176L656,176L640,176L624,176L608,176L608,160L608,144L608,128L608,112L608,96L608,80L608,64M624,80L624,96L624,112L624,128L624,144L624,160L640,160L656,160L672,160L688,160L704,160L704,144L704,128L704,112L704,96L704,80L688,80L672,80L656,80L640,80L624,80Z" />
</g>
<g id='corners-inner-2' style='fill:#000000' >
<path d="M640,96L656,96L672,96L688,96L688,112L688,128L688,144L672,144L656,144L640,144L640,128L640,112L640,96Z" />
</g>
<g id='corners-outer-3' style='fill:#000000' >
<path d="M64,608L80,608L96,608L112,608L128,608L144,608L160,608L176,608L176,624L176,640L176,656L176,672L176,688L176,704L176,720L160,720L144,720L128,720L112,720L96,720L80,720L64,720L64,704L64,688L64,672L64,656L64,640L64,624L64,608M80,624L80,640L80,656L80,672L80,688L80,704L96,704L112,704L128,704L144,704L160,704L160,688L160,672L160,656L160,640L160,624L144,624L128,624L112,624L96,624L80,624Z" />
</g>
<g id='corners-inner-3' style='fill:#000000' >
<path d="M96,640L112,640L128,640L144,640L144,656L144,672L144,688L128,688L112,688L96,688L96,672L96,656L96,640Z" />
</g>
</svg>
