<?xml version='1.0'?>
<!--
Bitly Generated QR Code
v5
37x37
-->
<svg width='720' height='720'
xmlns='http://www.w3.org/2000/svg'
xmlns:xlink='http://www.w3.org/1999/xlink'>
	<g id='background' style='fill:#ffffff' >
<rect x="0" y="0" width="720" height="720" />
</g>
<g id='pips' style='fill:#000000' >
<path d="M64,224L80,224L80,208L96,208L96,224L96,240L112,240L128,240L128,224L128,208L112,208L112,192L128,192L144,192L144,208L160,208L160,224L176,224L176,240L160,240L144,240L144,256L144,272L144,288L128,288L112,288L112,272L112,256L96,256L96,272L96,288L96,304L96,320L112,320L112,336L112,352L128,352L128,368L144,368L144,384L128,384L128,400L128,416L112,416L112,432L128,432L128,416L144,416L144,400L160,400L160,416L176,416L176,432L160,432L144,432L144,448L128,448L128,464L128,480L112,480L112,464L96,464L96,480L112,480L112,496L128,496L128,512L128,528L112,528L112,512L96,512L96,496L80,496L80,512L80,528L64,528L64,512L64,496L64,480L64,464L64,448L80,448L96,448L96,432L80,432L80,416L96,416L96,400L112,400L112,384L112,368L96,368L80,368L64,368L64,352L80,352L96,352L96,336L80,336L80,320L80,304L80,288L80,272L80,256L80,240L64,240L64,224M64,400L80,400L80,416L64,416L64,400M80,384L96,384L96,400L80,400L80,384M128,320L144,320L144,304L144,288L160,288L176,288L176,272L160,272L160,256L176,256L192,256L192,240L208,240L208,256L224,256L240,256L240,272L256,272L256,288L240,288L224,288L224,272L208,272L192,272L192,288L192,304L176,304L160,304L160,320L176,320L176,336L160,336L144,336L128,336L128,320M128,480L144,480L144,464L160,464L160,480L176,480L176,496L160,496L144,496L128,496L128,480M144,512L160,512L176,512L176,496L192,496L192,512L192,528L176,528L160,528L144,528L144,512M160,192L176,192L192,192L192,208L176,208L160,208L160,192M160,352L176,352L192,352L192,336L208,336L208,352L224,352L224,368L208,368L192,368L176,368L160,368L160,352M160,384L176,384L192,384L208,384L224,384L240,384L256,384L256,400L240,400L240,416L256,416L256,400L272,400L272,416L288,416L304,416L320,416L320,432L304,432L288,432L288,448L288,464L272,464L256,464L240,464L240,448L240,432L224,432L224,416L224,400L208,400L208,416L192,416L176,416L176,400L160,400L160,384M160,448L176,448L176,464L160,464L160,448M176,432L192,432L208,432L208,448L192,448L176,448L176,432M192,96L208,96L224,96L224,112L208,112L208,128L192,128L192,112L192,96M192,160L208,160L208,176L192,176L192,160M192,208L208,208L208,224L192,224L192,208M192,304L208,304L208,288L224,288L224,304L240,304L240,320L240,336L224,336L208,336L208,320L192,320L192,304M192,464L208,464L208,480L192,480L192,464M192,528L208,528L208,512L224,512L240,512L240,528L240,544L224,544L224,560L208,560L192,560L192,544L192,528M192,576L208,576L208,592L208,608L192,608L192,592L192,576M208,64L224,64L224,80L208,80L208,64M208,128L224,128L224,144L208,144L208,128M208,176L224,176L224,160L240,160L240,176L256,176L256,192L256,208L272,208L272,224L272,240L272,256L256,256L256,240L240,240L240,224L240,208L240,192L224,192L208,192L208,176M208,608L224,608L224,592L240,592L240,608L256,608L256,624L240,624L224,624L208,624L208,608M208,640L224,640L240,640L256,640L272,640L272,656L256,656L240,656L224,656L208,656L208,640M224,112L240,112L240,96L256,96L256,112L272,112L272,96L288,96L288,112L304,112L320,112L320,96L320,80L336,80L352,80L352,96L336,96L336,112L352,112L352,96L368,96L368,80L384,80L384,64L400,64L400,80L416,80L416,64L432,64L432,80L432,96L416,96L416,112L432,112L432,128L432,144L416,144L400,144L400,128L400,112L384,112L368,112L368,128L352,128L336,128L320,128L304,128L288,128L288,144L272,144L256,144L256,160L240,160L240,144L240,128L224,128L224,112M224,480L240,480L256,480L272,480L288,480L288,496L272,496L272,512L272,528L288,528L288,544L288,560L272,560L256,560L256,544L256,528L256,512L240,512L240,496L224,496L224,480M240,64L256,64L256,80L240,80L240,64M240,336L256,336L256,352L272,352L272,336L288,336L288,352L288,368L288,384L272,384L256,384L256,368L240,368L240,352L240,336M256,160L272,160L272,176L256,176L256,160M256,288L272,288L272,304L256,304L256,288M256,320L272,320L272,336L256,336L256,320M256,576L272,576L272,592L256,592L256,576M272,64L288,64L304,64L304,80L288,80L272,80L272,64M272,176L288,176L288,160L304,160L304,176L304,192L288,192L288,208L272,208L272,192L272,176M272,256L288,256L288,240L304,240L304,224L320,224L320,240L320,256L304,256L304,272L288,272L272,272L272,256M272,592L288,592L288,608L288,624L304,624L304,608L320,608L320,624L320,640L304,640L304,656L288,656L288,640L272,640L272,624L272,608L272,592M288,208L304,208L304,224L288,224L288,208M288,288L304,288L304,272L320,272L320,256L336,256L336,272L352,272L352,288L368,288L368,304L352,304L352,320L336,320L336,304L336,288L320,288L320,304L320,320L336,320L336,336L320,336L304,336L304,320L288,320L288,304L288,288M288,512L304,512L304,496L304,480L304,464L320,464L320,448L336,448L336,464L336,480L320,480L320,496L320,512L336,512L336,496L352,496L352,512L368,512L384,512L384,528L400,528L400,544L400,560L416,560L416,576L416,592L416,608L400,608L400,592L400,576L384,576L368,576L368,560L384,560L384,544L368,544L368,528L352,528L352,544L368,544L368,560L352,560L336,560L320,560L320,544L304,544L304,528L288,528L288,512M304,144L320,144L320,160L304,160L304,144M304,192L320,192L320,176L320,160L336,160L336,176L336,192L336,208L320,208L304,208L304,192M304,560L320,560L320,576L336,576L352,576L352,592L336,592L320,592L304,592L304,576L304,560M320,400L336,400L336,416L320,416L320,400M320,640L336,640L336,656L320,656L320,640M336,208L352,208L352,192L352,176L352,160L368,160L368,176L368,192L384,192L384,176L384,160L384,144L400,144L400,160L400,176L416,176L416,160L432,160L432,176L448,176L448,160L464,160L464,176L464,192L480,192L480,176L480,160L464,160L464,144L464,128L480,128L480,144L496,144L496,160L496,176L512,176L512,160L528,160L528,176L528,192L528,208L544,208L544,224L560,224L560,240L560,256L560,272L544,272L544,256L528,256L512,256L512,272L512,288L528,288L528,272L544,272L544,288L544,304L544,320L528,320L528,336L512,336L512,352L512,368L496,368L496,352L480,352L464,352L448,352L432,352L432,368L416,368L416,352L416,336L400,336L400,320L384,320L368,320L368,304L384,304L400,304L416,304L416,320L432,320L432,336L448,336L448,320L464,320L480,320L480,336L496,336L496,320L496,304L480,304L480,288L480,272L496,272L496,256L480,256L480,240L496,240L496,224L512,224L512,240L528,240L528,224L512,224L512,208L512,192L496,192L496,208L496,224L480,224L480,240L464,240L464,224L464,208L448,208L432,208L432,224L432,240L448,240L448,256L464,256L464,272L448,272L448,288L432,288L432,272L416,272L400,272L400,288L384,288L368,288L368,272L384,272L384,256L400,256L416,256L416,240L400,240L384,240L384,224L400,224L400,208L416,208L416,192L400,192L400,208L384,208L384,224L368,224L368,240L352,240L352,224L336,224L336,208M336,240L352,240L352,256L336,256L336,240M336,336L352,336L352,352L336,352L336,336M336,368L352,368L368,368L368,352L368,336L384,336L400,336L400,352L384,352L384,368L400,368L400,384L384,384L368,384L368,400L352,400L352,384L336,384L336,368M336,608L352,608L352,592L368,592L384,592L384,608L400,608L400,624L384,624L384,640L368,640L368,624L352,624L336,624L336,608M352,256L368,256L368,272L352,272L352,256M352,320L368,320L368,336L352,336L352,320M352,432L368,432L368,448L368,464L368,480L352,480L352,464L352,448L352,432M368,416L384,416L384,432L368,432L368,416M368,480L384,480L384,496L368,496L368,480M384,400L400,400L416,400L432,400L432,416L416,416L400,416L384,416L384,400M384,432L400,432L400,448L384,448L384,432M384,496L400,496L400,512L384,512L384,496M384,640L400,640L400,656L384,656L384,640M400,448L416,448L432,448L432,432L448,432L448,448L448,464L432,464L432,480L416,480L416,464L400,464L400,448M400,512L416,512L416,496L432,496L432,512L448,512L448,496L464,496L464,512L480,512L480,528L464,528L448,528L432,528L432,544L416,544L416,528L400,528L400,512M416,608L432,608L432,624L416,624L416,608M432,96L448,96L448,112L432,112L432,96M432,304L448,304L448,320L432,320L432,304M432,368L448,368L448,384L464,384L464,400L464,416L464,432L448,432L448,416L448,400L432,400L432,384L432,368M432,544L448,544L448,560L448,576L464,576L464,592L448,592L432,592L432,576L432,560L432,544M448,64L464,64L480,64L496,64L496,80L480,80L480,96L480,112L464,112L464,96L464,80L448,80L448,64M448,464L464,464L464,448L480,448L480,432L480,416L496,416L496,400L480,400L480,384L496,384L512,384L512,368L528,368L528,384L528,400L544,400L544,416L528,416L512,416L512,432L528,432L528,448L512,448L496,448L496,464L480,464L480,480L464,480L448,480L448,464M448,608L464,608L480,608L496,608L512,608L512,624L496,624L480,624L464,624L448,624L448,608M448,640L464,640L464,656L448,656L448,640M464,368L480,368L480,384L464,384L464,368M464,544L480,544L496,544L496,560L496,576L512,576L512,560L512,544L496,544L496,528L496,512L512,512L512,496L528,496L544,496L544,512L560,512L560,496L576,496L576,512L592,512L592,528L608,528L608,512L608,496L608,480L624,480L640,480L656,480L656,496L640,496L640,512L656,512L656,528L640,528L624,528L624,544L624,560L608,560L608,576L592,576L592,592L576,592L560,592L560,608L544,608L544,592L528,592L528,608L512,608L512,592L496,592L480,592L480,576L464,576L464,560L464,544M480,496L496,496L496,512L480,512L480,496M496,464L512,464L528,464L544,464L544,480L528,480L512,480L512,496L496,496L496,480L496,464M512,112L528,112L528,128L512,128L512,112M528,528L528,544L528,560L528,576L544,576L560,576L576,576L576,560L576,544L576,528L560,528L544,528L528,528M512,640L528,640L544,640L544,624L560,624L560,640L560,656L544,656L528,656L512,656L512,640M528,336L544,336L544,352L560,352L560,368L544,368L528,368L528,352L528,336M544,320L560,320L560,336L544,336L544,320M544,384L560,384L560,400L544,400L544,384M544,432L560,432L576,432L576,448L560,448L560,464L544,464L544,448L544,432M544,480L560,480L560,496L544,496L544,480M544,544L560,544L560,560L544,560L544,544M560,272L576,272L592,272L592,288L608,288L608,272L624,272L624,288L624,304L624,320L624,336L608,336L608,320L592,320L576,320L560,320L560,304L560,288L560,272M560,368L576,368L576,384L560,384L560,368M560,400L576,400L576,384L592,384L592,368L576,368L576,352L592,352L592,336L608,336L608,352L608,368L608,384L608,400L608,416L592,416L592,432L576,432L576,416L560,416L560,400M560,608L576,608L576,624L560,624L560,608M576,208L592,208L592,192L608,192L624,192L624,208L608,208L608,224L592,224L576,224L576,208M576,464L592,464L592,480L592,496L576,496L576,480L576,464M592,432L608,432L608,416L624,416L624,432L624,448L608,448L608,464L592,464L592,448L592,432M592,592L608,592L608,608L592,608L592,592M608,240L624,240L624,256L608,256L608,240M624,256L640,256L656,256L656,272L640,272L624,272L624,256M624,336L640,336L640,352L624,352L624,336M624,560L640,560L640,544L656,544L656,560L656,576L640,576L624,576L624,560M640,224L656,224L656,240L640,240L640,224M640,288L656,288L656,304L656,320L656,336L640,336L640,320L640,304L640,288M640,352L656,352L656,368L656,384L640,384L640,368L640,352M640,416L656,416L656,432L640,432L640,416Z" />
<path d="M4.7253,9.0689C6.179,9.0436 6.4149,7.6154 6.4149,6.769C6.4149,5.5163 5.775,5.0788 5,5C4.0425,5.4242 3.3403,6.146 3.2555,7.2606C3.2416,7.4443 3.237,7.6894 3.2516,7.9757C3.2906,8.7383 3.8493,9.0843 4.7253,9.0689 M 12.2447 10.8068 C 11.2047 10.8068 10.1118 10.1673 10.06 8.9707 C 8.8774 10.2223 7.0538 10.8186 4.7253 10.8186 C 2.3769 10.8186 1.396 9.2175 1.396 7.9703 C 1.4554 3.8126 1.3605 2.255 1.341 1.9353 C 1.3393 1.907 1.3381 1.8884 1.3377 1.8785 L 1.3373 1.8677 C 1.3313 1.7096 1.3224 1.4733 1.172 1.4572 C 1.0786 1.4472 1.0183 1.4757 0.911 1.6094 C 0.75 1.8233 0.425 1.908 0.2273 1.7937 C -0.0116 1.6555 -0.0562 1.3505 0.0647 1.0697 C 0.4002 0.3212 0.9379 -0.01 1.6625 0.0003 C 2.9146 0.0182 3.2738 0.8359 3.2738 1.8575 C 3.2738 1.8575 3.246 3.3292 3.246 4.1579 C 3.689 3.7969 4.3397 3.4098 5.4266 3.4098 C 7.6899 3.4098 9.1267 6.2118 7.6503 8.8925 C 9.5428 8.0197 9.9378 6.5164 10.0112 5.0238 L 10.0043 4.5203 C 10.0043 3.9552 10.3688 3.4767 10.9361 3.4767 C 11.5034 3.4767 11.8802 3.9877 11.86 4.5271 C 11.7919 6.3438 11.7644 7.5395 11.7644 8.1722 C 11.7644 8.5384 11.9642 9.0996 12.5555 9.0996 C 13.7134 9.0996 14.094 8.1922 14.1838 6.0595 C 14.1885 5.2642 14.1927 4.5997 14.1927 4.5997 C 13.6679 4.5997 13.4094 4.324 13.4094 3.9795 C 13.4094 3.635 13.683 3.3163 14.1321 3.3163 C 14.1321 3.3163 14.133 2.1182 14.133 1.622 C 14.133 1.0569 14.5715 0.5883 15.1388 0.5883 C 15.7062 0.5883 16.1567 1.0569 16.1567 1.622 C 16.1567 1.8095 16.1495 2.028 16.1416 2.2695 C 16.1315 2.5784 16.1201 2.9246 16.121 3.2909 L 16.2032 3.2905 H 16.2032 C 16.357 3.29 16.7051 3.2888 17.1681 3.2834 C 17.7198 3.2769 17.9445 3.5851 17.9445 3.9709 C 17.9445 4.3567 17.6475 4.626 17.2602 4.6276 C 16.9012 4.6291 16.1083 4.6247 16.1083 4.6247 C 16.0723 5.7674 16.0382 7.1451 16.0382 8.2475 C 16.0382 8.6451 16.3126 9.0995 16.9767 9.0995 C 18.3163 9.0995 18.8167 7.9092 18.9173 5.6498 C 18.9095 4.0766 18.8907 3.1653 18.8765 2.4785 V 2.4785 C 18.8666 1.9969 18.859 1.6258 18.859 1.2143 C 18.859 0.6493 19.3295 0.1442 19.8967 0.1442 C 20.4641 0.1442 20.8826 0.5977 20.8826 1.1627 C 20.8826 1.598 20.8651 2.1069 20.8413 2.8009 V 2.8009 V 2.801 C 20.801 3.9747 20.7425 5.6778 20.7195 8.4504 C 20.7165 8.8195 20.8967 9.0795 21.3748 9.0795 C 22.6524 9.0795 23.0066 7.6955 23.119 5.7625 C 23.1197 5.6695 23.1205 5.5785 23.1214 5.4891 L 23.1214 5.4887 C 23.1231 5.3054 23.1247 5.1289 23.1247 4.9561 C 23.1247 4.391 23.5011 3.9337 24.0686 3.9337 C 24.6359 3.9337 24.9694 4.4022 24.9694 4.9673 C 24.9694 5.3698 24.9562 5.7464 24.9427 6.1348 C 24.9307 6.4777 24.9184 6.8299 24.9146 7.2176 C 24.9047 8.2151 25.2455 9.0938 26.0756 9.0914 C 26.8726 9.0891 27.7479 8.7536 27.7691 7.045 C 27.7751 6.5701 27.7683 6.2053 27.7615 5.8371 V 5.837 V 5.8369 V 5.8368 C 27.7564 5.5642 27.7513 5.2897 27.7513 4.9673 C 27.7513 4.4022 28.1451 3.9337 28.7125 3.9337 C 29.2795 3.9337 29.6737 4.4022 29.6737 4.9673 C 29.6737 5.3051 29.6614 5.6415 29.6477 6.0145 V 6.0145 V 6.0146 V 6.0146 C 29.6307 6.4783 29.6117 6.9984 29.6117 7.6477 C 29.6117 7.6477 29.5769 10.0141 29.66 10.5378 C 29.9203 10.4512 30.2958 10.1968 30.6935 9.5802 C 30.9337 9.208 31.3928 9.1282 31.6758 9.293 C 32.0653 9.52 32.0514 9.9635 31.9058 10.2875 C 31.5298 11.1239 31.0409 11.6358 29.8047 12.0595 C 29.8086 13.4782 29.7098 15.5713 27.0868 15.9496 C 24.8405 16.2735 23.8244 14.9708 23.8211 13.8623 C 23.8157 12.112 25.5649 11.6022 28.0897 10.9665 L 28.0087 10.099 C 28.0087 10.099 27.4464 10.8364 26.0215 10.8008 C 24.9223 10.7733 24.1663 10.2543 23.7077 9.5213 C 23.1787 10.3901 22.3495 10.8105 21.1004 10.8105 C 20.2775 10.8105 19.4934 10.3758 19.1051 9.7457 C 18.5325 10.4308 17.7339 10.8015 16.6607 10.8015 C 15.7256 10.8015 15.0346 10.4786 14.6209 9.9746 C 14.087 10.5712 13.318 10.8068 12.2447 10.8068 Z M 28.2548 12.363 C 26.9786 12.6385 25.3798 13.0407 25.3983 13.8266 C 25.4158 14.5636 26.1767 14.6977 26.8111 14.5666 C 28.1286 14.2943 28.2816 13.5015 28.2548 12.363 Z M 11.9704 1.6249 C 11.9704 1.0544 11.5073 0.5932 10.9347 0.5932 C 10.3619 0.5932 9.8989 1.0544 9.8989 1.6249 C 9.8989 2.1953 10.3619 2.6566 10.9347 2.6566 C 11.5073 2.6566 11.9704 2.1953 11.9704 1.6249 Z" fill='#000000' transform='translate(584.000000, 620.000000) scale(2.250000, 2.250000)' />
</g>
<g id='corners-outer-1' style='fill:#000000' >
<path d="M64,64L80,64L96,64L112,64L128,64L144,64L160,64L176,64L176,80L176,96L176,112L176,128L176,144L176,160L176,176L160,176L144,176L128,176L112,176L96,176L80,176L64,176L64,160L64,144L64,128L64,112L64,96L64,80L64,64M80,80L80,96L80,112L80,128L80,144L80,160L96,160L112,160L128,160L144,160L160,160L160,144L160,128L160,112L160,96L160,80L144,80L128,80L112,80L96,80L80,80Z" />
</g>
<g id='corners-inner-1' style='fill:#000000' >
<path d="M96,96L112,96L128,96L144,96L144,112L144,128L144,144L128,144L112,144L96,144L96,128L96,112L96,96Z" />
</g>
<g id='corners-outer-2' style='fill:#000000' >
<path d="M544,64L560,64L576,64L592,64L608,64L624,64L640,64L656,64L656,80L656,96L656,112L656,128L656,144L656,160L656,176L640,176L624,176L608,176L592,176L576,176L560,176L544,176L544,160L544,144L544,128L544,112L544,96L544,80L544,64M560,80L560,96L560,112L560,128L560,144L560,160L576,160L592,160L608,160L624,160L640,160L640,144L640,128L640,112L640,96L640,80L624,80L608,80L592,80L576,80L560,80Z" />
</g>
<g id='corners-inner-2' style='fill:#000000' >
<path d="M576,96L592,96L608,96L624,96L624,112L624,128L624,144L608,144L592,144L576,144L576,128L576,112L576,96Z" />
</g>
<g id='corners-outer-3' style='fill:#000000' >
<path d="M64,544L80,544L96,544L112,544L128,544L144,544L160,544L176,544L176,560L176,576L176,592L176,608L176,624L176,640L176,656L160,656L144,656L128,656L112,656L96,656L80,656L64,656L64,640L64,624L64,608L64,592L64,576L64,560L64,544M80,560L80,576L80,592L80,608L80,624L80,640L96,640L112,640L128,640L144,640L160,640L160,624L160,608L160,592L160,576L160,560L144,560L128,560L112,560L96,560L80,560Z" />
</g>
<g id='corners-inner-3' style='fill:#000000' >
<path d="M96,576L112,576L128,576L144,576L144,592L144,608L144,624L128,624L112,624L96,624L96,608L96,592L96,576Z" />
</g>
</svg>
